<svg width="130" height="130" viewBox="0 0 130 130" fill="none" xmlns="http://www.w3.org/2000/svg">
<path d="M65 0C100.899 0 130 29.1015 130 65C130 100.899 100.899 130 65 130H25.5537C31.0766 130 35.5537 125.523 35.5537 120V111.926C35.5537 109.376 36.5282 106.922 38.2773 105.066L56.1172 86.1406C58.0066 84.1363 60.64 83 63.3945 83H69.1299C74.6527 83 79.1299 78.5229 79.1299 73V57C79.1298 51.4772 74.6527 47 69.1299 47H63.3428C60.5882 47 57.9549 45.8638 56.0654 43.8594L38.2773 24.9893C36.5283 23.1338 35.5538 20.6798 35.5537 18.1299V10C35.5536 4.47723 31.0765 2.57697e-07 25.5537 0H65ZM0 28.9629C1.26271 33.0392 5.06238 36 9.55371 36H18.8535C21.6081 36 24.2414 37.1363 26.1309 39.1406L40.4062 54.2852C42.1554 56.1407 43.1299 58.5945 43.1299 61.1445V68.9102C43.1298 71.4601 42.1553 73.9141 40.4062 75.7695L26.1816 90.8594C24.2922 92.8638 21.6589 94 18.9043 94H9.55371C5.06282 94 1.26308 96.9604 0 101.036V28.9629Z" fill="#010101"/>
</svg>
